<?xml version="1.0" encoding="utf-8"?>
<!-- Generator: Adobe Illustrator 24.0.2, SVG Export Plug-In . SVG Version: 6.00 Build 0)  -->
<svg version="1.1" id="Слой_1" xmlns="http://www.w3.org/2000/svg" xmlns:xlink="http://www.w3.org/1999/xlink" x="0px" y="0px"
	 viewBox="0 0 21 21" style="enable-background:new 0 0 21 21;" xml:space="preserve">
<style type="text/css">
	.st0{fill-rule:evenodd;clip-rule:evenodd;fill:#C7B299;}
</style>
<g>
	<path class="st0" d="M10.5,0C4.7,0,0,4.7,0,10.5S4.7,21,10.5,21S21,16.3,21,10.5S16.3,0,10.5,0z M13.8,11l-4.5,4.5
		c-0.3,0.3-0.7,0.3-1,0s-0.3-0.7,0-1l4-4l-4-4C8,6.2,8,5.8,8.3,5.5s0.7-0.3,1,0l4.5,4.5c0.1,0.1,0.2,0.3,0.2,0.5S13.9,10.8,13.8,11z
		"/>
</g>
</svg>
