<?xml version="1.0" encoding="utf-8"?>
<!-- Generator: Adobe Illustrator 24.0.2, SVG Export Plug-In . SVG Version: 6.00 Build 0)  -->
<svg version="1.1" id="Слой_1" xmlns="http://www.w3.org/2000/svg" xmlns:xlink="http://www.w3.org/1999/xlink" x="0px" y="0px"
	 viewBox="0 0 66 59" style="enable-background:new 0 0 66 59;" xml:space="preserve">
<style type="text/css">
	.st0{fill-rule:evenodd;clip-rule:evenodd;fill:#FFFFFF;}
</style>
<path class="st0" d="M38.1,12.7H27.6l5.3,9.2L38.1,12.7z M26.3,13.5L21,22.7h10.5L26.3,13.5z M44.7,22.7l-5.3-9.2l-5.3,9.2H44.7z
	 M34.2,24.2l5.3,9.2l5.3-9.2H34.2z M21,24.2l5.3,9.2l5.3-9.2H21z M14.5,34.2H25L19.7,25L14.5,34.2z M51.2,34.2L46,25l-5.3,9.2H51.2z
	 M32.9,2l-5.3,9.2h10.5L32.9,2z M46,44.9l5.3-9.2H40.7L46,44.9z M19.7,44.9l5.3-9.2H14.5L19.7,44.9z M7.9,45.6h10.5l-5.3-9.2
	L7.9,45.6z M57.8,45.6l-5.3-9.2l-5.3,9.2H57.8z M47.3,47.2l5.3,9.2l5.3-9.2H47.3z M34.2,47.2l5.3,9.2l5.3-9.2H34.2z M13.2,56.4
	l5.3-9.2H7.9L13.2,56.4z M1.3,57.1h10.5l-5.3-9.2L1.3,57.1z M27.6,57.1h10.5l-5.3-9.2L27.6,57.1z M40.7,57.1h10.5L46,47.9L40.7,57.1
	z M59.1,47.9l-5.3,9.2h10.5L59.1,47.9z"/>
</svg>
